HIERARCHY
ROOT Hips
{
	OFFSET 0.00000 0.00000 0.00000
	CHANNELS 6 Xposition Yposition Zposition Zrotation Yrotation Xrotation 
	JOINT LHipJoint
	{
		OFFSET 0 0 0
		CHANNELS 3 Zrotation Yrotation Xrotation
		JOINT LeftHip
		{
			OFFSET 1.36337 -1.57426 1.11036
			CHANNELS 3 Zrotation Yrotation Xrotation
			JOINT LeftKnee
			{
				OFFSET 2.38468 -6.55187 0.00000
				CHANNELS 3 Zrotation Yrotation Xrotation
				JOINT LeftAnkle
				{
					OFFSET 2.37166 -6.51609 0.00000
					CHANNELS 3 Zrotation Yrotation Xrotation
					JOINT LeftToe
					{
						OFFSET 0.29078 -0.79891 2.01393
						CHANNELS 3 Zrotation Yrotation Xrotation
						End Site
						{
							OFFSET 0.00000 -0.00000 1.07924
						}
					}
				}
			}
		}
	}
	JOINT RHipJoint
	{
		OFFSET 0 0 0
		CHANNELS 3 Zrotation Yrotation Xrotation
		JOINT RightHip
		{
			OFFSET -1.36349 -1.57426 1.11036
			CHANNELS 3 Zrotation Yrotation Xrotation
			JOINT RightKnee
			{
				OFFSET -2.29562 -6.30717 0.00000
				CHANNELS 3 Zrotation Yrotation Xrotation
				JOINT RightAnkle
				{
					OFFSET -2.40985 -6.62100 0.00000
					CHANNELS 3 Zrotation Yrotation Xrotation
					JOINT RightToe
					{
						OFFSET -0.23197 -0.63733 1.92232
						CHANNELS 3 Zrotation Yrotation Xrotation
						End Site
						{
							OFFSET -0.00000 -0.00000 1.01562
						}
					}
				}
			}
		}
	}
	JOINT lowerback
	{
		OFFSET 0 0 0
		CHANNELS 3 Zrotation Yrotation Xrotation
		JOINT Chest
		{
			OFFSET -0.08565 2.03602 -0.24562
			CHANNELS 3 Zrotation Yrotation Xrotation
			JOINT Chest2
			{
				OFFSET -0.00036 2.05693 0.00216
				CHANNELS 3 Zrotation Yrotation Xrotation
				JOINT lowerneck
				{
					OFFSET 0 0 0
					CHANNELS 3 Zrotation Yrotation Xrotation
					JOINT Neck
					{
						OFFSET -0.03664 1.69515 0.31789
						CHANNELS 3 Zrotation Yrotation Xrotation
						JOINT Head
						{
							OFFSET 0.00932 1.70181 -0.46013
							CHANNELS 3 Zrotation Yrotation Xrotation
							End Site
							{
								OFFSET 0.01243 1.77620 -0.19377
							}
						}
					}
				}
				JOINT LeftCollar
				{
					OFFSET 0 0 0
					CHANNELS 3 Zrotation Yrotation Xrotation
					JOINT LeftShoulder
					{
						OFFSET 3.74344 0.81315 -0.36647
CHANNELS 3 Zrotation Xrotation Yrotation
						JOINT LeftElbow
						{
OFFSET 0 -4.971850 -0.000000
CHANNELS 3 Zrotation Xrotation Yrotation
							JOINT LeftWrist
							{
OFFSET 0 -3.358110 0.000000
CHANNELS 3 Zrotation Xrotation Yrotation
								JOINT lhand
								{
									OFFSET 0 0 0
CHANNELS 3 Zrotation Xrotation Yrotation
									JOINT LFingers
									{
OFFSET 0 -0.622780 0.000000
CHANNELS 3 Zrotation Xrotation Yrotation
										End Site
										{
OFFSET 0 -0.502100 0.000000
										}
									}
								}
								JOINT LThumb
								{
OFFSET 0 0.000000 0.000000
CHANNELS 3 Zrotation Xrotation Yrotation
									End Site
									{
OFFSET 0 -0.509760 0.509760
									}
								}
							}
						}
					}
				}
				JOINT RightCollar
				{
					OFFSET 0 0 0
					CHANNELS 3 Zrotation Yrotation Xrotation
					JOINT RightShoulder
					{
						OFFSET -3.75385 0.50666 -0.06525
CHANNELS 3 Zrotation Xrotation Yrotation
						JOINT RightElbow
						{
OFFSET 0 -4.964930 -0.000000
CHANNELS 3 Zrotation Xrotation Yrotation
							JOINT RightWrist
							{
OFFSET 0 -3.349290 0.000000
CHANNELS 3 Zrotation Xrotation Yrotation
								JOINT rhand
								{
									OFFSET 0 0 0
CHANNELS 3 Zrotation Xrotation Yrotation
									JOINT RFingers
									{
OFFSET 0 -0.638040 0.000000
CHANNELS 3 Zrotation Xrotation Yrotation
										End Site
										{
OFFSET 0 -0.514410 0.000000
										}
									}
								}
								JOINT RThumb
								{
OFFSET 0 0.000000 0.000000
CHANNELS 3 Zrotation Xrotation Yrotation
									End Site
									{
OFFSET 0 -0.522260 0.522260
									}
								}
							}
						}
					}
				}
			}
		}
	}
}
MOTION
Frames: 9
Frame Time: 0.008333333333333333
-29.181400 16.242200 -3.107200 66.668200 83.928000 66.097400 0.000000 0.000000 0.000000 -24.821700 -6.078600 -0.700800 2.508800 9.853800 28.504600 1.934400 7.234000 -29.690600 0.049500 -1.435200 -3.947100 0.000000 0.000000 0.000000 11.736900 2.958700 -4.787800 -2.633800 -10.077200 29.227200 -2.877400 -15.963800 -40.661500 -0.385900 -3.989400 11.046700 -6.346200 1.809900 -3.421800 -0.355700 2.917500 4.405600 3.432600 1.178000 6.239400 15.017400 18.252500 -5.594700 -11.758200 28.195800 24.306900 -2.198900 13.343400 12.882700 -0.000000 0.000000 0.000000 -1.763100 -4.045300 -28.166500 12.543900 -20.615300 2.290200 23.307500 -9.425900 11.487400 0.000000 0.000000 0.000000 -7.125000 0.000000 0.000000 -2.685400 17.510800 -1.754900 -0.000000 0.000000 0.000000 -1.896100 -1.963100 16.218800 -12.748100 -20.917000 -2.362600 -11.467000 0.605600 27.201700 0.000000 0.000000 0.000000 7.125000 0.000000 -0.000000 20.404300 56.465500 -5.907500
-29.188339 16.256214 -3.104306 63.743101 83.891740 63.153811 0.000000 0.000000 0.000000 -24.683063 -5.852788 -0.697321 2.484411 9.809477 28.361938 1.913704 7.308787 -29.602381 0.057852 -1.547180 -4.255955 0.000000 0.000000 0.000000 11.929527 3.658977 -4.460972 -2.626693 -10.064674 29.186464 -3.161432 -15.204088 -41.416854 -0.521159 -4.608298 12.797903 -6.219324 1.876654 -3.124150 -0.382256 2.973272 4.329747 3.323036 1.222695 5.987288 15.272085 18.188269 -5.162118 -11.881257 28.157606 24.232717 -2.322478 13.366399 12.828777 0.000000 0.000000 0.000000 -1.703726 -4.058045 -27.692595 12.247725 -20.175085 2.186970 23.650330 -9.689923 12.541277 0.000000 0.000000 0.000000 -7.125000 0.000000 0.000000 -2.498919 16.338238 -1.696325 0.000000 0.000000 0.000000 -1.816895 -1.600933 17.107871 -13.017652 -21.312955 -2.459841 -11.559416 -0.296192 27.231753 0.000000 0.000000 0.000000 7.125000 0.000000 0.000000 20.330511 56.512454 -5.908342
-29.194348 16.251655 -3.103964 60.772812 83.848405 60.228670 0.000000 0.000000 0.000000 -24.556738 -5.804642 -0.823957 2.506959 9.850539 28.494082 1.946194 7.282962 -29.795664 0.024791 -1.014778 -2.789505 0.000000 0.000000 0.000000 12.006981 3.396860 -4.731579 -2.599343 -10.016292 29.029471 -2.799525 -16.122324 -40.418726 -0.266123 -3.318721 9.167438 -6.106730 1.898918 -2.948973 -0.371112 2.979565 4.286459 3.263430 1.236337 5.843401 15.275953 18.189281 -5.004881 -11.855323 28.159488 24.196684 -2.332028 13.380914 12.780003 0.000000 0.000000 0.000000 -1.667655 -3.996823 -27.352297 12.157020 -20.039698 2.155823 23.772437 -9.792625 12.527693 0.000000 0.000000 0.000000 -7.125000 0.000000 0.000000 -2.413447 16.340234 -1.638445 0.000000 0.000000 0.000000 -1.856909 -1.201510 18.347570 -13.415317 -21.892590 -2.606157 -11.593274 -1.289975 27.528239 0.000000 0.000000 0.000000 7.125000 0.000000 0.000000 20.488452 56.796510 -6.099752
-29.202838 16.254929 -3.101960 59.233226 83.907478 58.751994 0.000000 0.000000 0.000000 -24.374345 -5.753862 -1.077318 2.541806 9.913428 28.697009 1.971933 7.261568 -29.946824 0.026756 -1.054268 -2.898226 0.000000 0.000000 0.000000 12.186447 3.613332 -4.668996 -2.564944 -9.954907 28.830960 -2.855348 -16.093462 -40.654639 -0.250682 -3.221799 8.896819 -6.033200 1.827897 -2.693598 -0.317230 2.852603 4.195322 3.256788 1.184458 5.612520 15.220905 18.202730 -4.807231 -11.749767 28.205931 24.289971 -2.300164 13.418980 12.758650 0.000000 0.000000 0.000000 -1.648072 -3.876978 -26.957950 12.074774 -19.916617 2.127683 23.623387 -9.377414 12.477365 0.000000 0.000000 0.000000 -7.125000 0.000000 0.000000 -2.513972 16.410240 -1.702950 0.000000 0.000000 0.000000 -1.749553 -1.153362 18.338620 -13.431722 -21.916439 -2.612234 -11.426352 -1.071100 27.387051 0.000000 0.000000 0.000000 7.125000 0.000000 0.000000 20.564970 56.630499 -6.040155
-29.212115 16.262092 -3.098319 58.356249 84.037693 58.045640 0.000000 0.000000 0.000000 -24.146063 -5.861385 -1.371384 2.568382 9.961235 28.851260 1.992371 7.152636 -30.012496 0.025459 -1.026622 -2.822125 0.000000 0.000000 0.000000 12.382527 3.683263 -4.785283 -2.534546 -9.900421 28.654799 -2.812484 -16.228659 -40.556825 -0.249328 -3.212122 8.870054 -6.017990 1.764783 -2.618153 -0.228525 2.754821 4.169371 3.330649 1.136721 5.547531 15.249085 18.192566 -4.819376 -11.777240 28.221233 24.399110 -2.304424 13.420990 12.818013 0.000000 0.000000 0.000000 -1.488263 -3.808629 -27.358836 12.178191 -20.071360 2.163060 23.604832 -9.707199 12.264770 0.000000 0.000000 0.000000 -7.125000 0.000000 0.000000 -2.515787 16.641806 -1.691498 0.000000 0.000000 0.000000 -1.665635 -1.284326 18.243701 -13.477492 -21.982849 -2.629365 -11.387547 -1.109577 27.282882 0.000000 0.000000 0.000000 7.125000 0.000000 0.000000 20.536576 56.525205 -5.978219
-29.219256 16.262834 -3.095527 57.414418 84.104588 57.190668 0.000000 0.000000 0.000000 -23.995890 -5.903352 -1.518635 2.578867 9.979951 28.911870 1.969748 7.159570 -29.872817 0.019374 -0.898500 -2.469549 0.000000 0.000000 0.000000 12.531437 3.738526 -4.858863 -2.518076 -9.870683 28.558886 -2.800217 -16.281114 -40.539117 -0.296506 -3.501109 9.677317 -6.021495 1.718480 -2.533726 -0.158518 2.685418 4.204331 3.398586 1.100367 5.539830 15.199535 18.221516 -4.866873 -11.716346 28.255468 24.476163 -2.264421 13.430775 12.844514 0.000000 0.000000 0.000000 -1.555465 -4.152772 -26.933413 12.001664 -19.807146 2.102839 22.893737 -9.118290 12.445235 0.000000 0.000000 0.000000 -7.125000 0.000000 0.000000 -3.017999 16.519848 -2.038155 0.000000 0.000000 0.000000 -1.716155 -1.405431 18.814595 -13.577188 -22.126916 -2.666850 -11.357304 -1.797562 27.441782 0.000000 0.000000 0.000000 7.125000 0.000000 0.000000 20.670313 56.667311 -6.091816
-29.224135 16.266040 -3.093657 55.199138 84.086803 54.838291 0.000000 0.000000 0.000000 -23.884473 -5.733885 -1.371882 2.567746 9.960072 28.847493 1.955878 7.309518 -29.873344 0.024938 -1.019182 -2.801629 0.000000 0.000000 0.000000 12.689730 3.991856 -4.604380 -2.517164 -9.869028 28.553663 -2.861412 -15.956383 -40.583930 -0.442930 -4.257078 11.802975 -5.981271 1.782951 -2.254233 -0.101809 2.750077 4.247476 3.428794 1.137076 5.417381 15.170825 18.187163 -4.753394 -11.675332 28.207028 24.473165 -2.271946 13.419592 12.801436 0.000000 0.000000 0.000000 -1.593478 -4.157901 -26.803356 12.058066 -19.891592 2.121975 22.833744 -8.854835 12.270212 0.000000 0.000000 0.000000 -7.125000 0.000000 0.000000 -3.051435 16.713943 -2.048020 0.000000 0.000000 0.000000 -1.756787 -1.142992 19.487045 -13.875470 -22.556251 -2.780210 -11.423389 -2.516747 27.894320 0.000000 0.000000 0.000000 7.125000 0.000000 0.000000 20.903044 57.102697 -6.387698
-29.220326 16.278431 -3.096501 52.513658 84.058043 52.221308 0.000000 0.000000 0.000000 -23.764874 -5.711765 -1.349531 2.549647 9.927589 28.742537 1.963053 7.422373 -29.985909 0.016607 -0.831293 -2.284761 0.000000 0.000000 0.000000 12.809006 4.167374 -4.611556 -2.520286 -9.874738 28.572040 -2.982890 -15.353271 -40.709920 -0.588181 -4.903353 13.634464 -5.858206 1.803134 -2.261672 -0.063356 2.765273 4.197544 3.400051 1.150598 5.369668 15.183062 18.167488 -4.602380 -11.605202 28.197346 24.553884 -2.266666 13.431863 12.792774 0.000000 0.000000 0.000000 -1.558059 -4.078331 -26.790293 12.098020 -19.951501 2.135612 22.553788 -8.791757 12.009259 0.000000 0.000000 0.000000 -7.125000 0.000000 0.000000 -3.234565 17.021438 -2.149534 0.000000 0.000000 0.000000 -1.922927 -0.808538 20.673306 -14.136092 -22.928917 -2.880973 -11.473083 -3.532470 28.001652 0.000000 0.000000 0.000000 7.125000 0.000000 0.000000 20.924706 57.213069 -6.451157
-29.216942 16.277257 -3.099940 50.567097 83.983398 50.368204 0.000000 0.000000 0.000000 -23.718878 -5.729256 -1.352275 2.528687 9.889818 28.620570 1.977227 7.553205 -30.154261 0.022048 -0.958252 -2.634007 0.000000 0.000000 0.000000 12.830119 4.039040 -4.865568 -2.523808 -9.881131 28.592658 -2.823513 -15.619841 -40.163800 -0.544025 -4.723145 13.121068 -5.769331 1.781893 -2.345660 -0.058564 2.734875 4.160440 3.356095 1.138584 5.384480 15.182093 18.182322 -4.440291 -11.613238 28.256478 24.578528 -2.272762 13.468143 12.782612 0.000000 0.000000 0.000000 -1.630733 -4.274329 -26.059242 11.943156 -19.719432 2.083082 22.251886 -8.541228 12.694689 0.000000 0.000000 0.000000 -7.125000 0.000000 0.000000 -3.474240 16.317089 -2.362542 0.000000 0.000000 0.000000 -1.939831 -0.699192 21.137196 -14.209127 -23.032909 -2.909434 -11.713208 -3.722324 28.034934 0.000000 0.000000 0.000000 7.125000 0.000000 0.000000 20.703511 57.294417 -6.419998
